<svg width="112" height="402" viewBox="0 0 112 402" fill="none" xmlns="http://www.w3.org/2000/svg">
<path d="M95.9663 115.918L106.297 127.234C107.978 129.077 108.911 131.481 108.911 133.976V143.338C108.911 146.267 107.626 149.049 105.396 150.949L95.9663 158.984M95.9663 115.918L108.122 68.0783C108.635 66.059 108.505 63.9298 107.749 61.9881L87.2674 9.37248C85.7718 5.53038 82.0715 3 77.9485 3H33.9624C29.8395 3 26.1392 5.53038 24.6436 9.37249L4.14037 62.0439C3.39803 63.951 3.25863 66.0398 3.741 68.0286L15.3563 115.918M95.9663 115.918H15.3563M95.9663 158.984V348.581M95.9663 158.984H15.3563M95.9663 348.581L105.396 356.616C107.626 358.516 108.911 361.298 108.911 364.227V384.821C108.911 388.109 107.295 391.186 104.589 393.053L98.5299 397.232C96.8604 398.383 94.8802 399 92.8521 399H18.5911C16.4882 399 14.4388 398.337 12.7343 397.105L7.1432 393.065C4.54118 391.185 3 388.17 3 384.96V364.088C3 361.239 4.21534 358.525 6.34092 356.628L15.3563 348.581M95.9663 348.581H15.3563M15.3563 348.581V158.984M15.3563 158.984L6.34093 150.937C4.21534 149.04 3 146.326 3 143.477V133.844C3 131.429 3.87405 129.095 5.46067 127.274L15.3563 115.918" stroke="url(#paint0_linear_102_4416)" stroke-width="6"/>
<path d="M67.497 177.463C67.4694 184.266 61.7764 189.804 54.7254 189.778C47.6745 189.751 42.0266 184.17 42.0542 177.367C42.0818 170.564 47.7748 165.025 54.8257 165.052C61.8767 165.079 67.5246 170.66 67.497 177.463Z" fill="url(#paint1_linear_102_4416)" stroke="url(#paint2_linear_102_4416)" stroke-width="2"/>
<path d="M67.4959 207.465C67.4688 214.268 61.7763 219.806 54.7254 219.779C47.6744 219.752 42.026 214.17 42.0531 207.367C42.0801 200.564 47.7727 195.026 54.8236 195.053C61.8746 195.08 67.5229 200.662 67.4959 207.465Z" fill="url(#paint3_linear_102_4416)" stroke="url(#paint4_linear_102_4416)" stroke-width="2"/>
<path d="M67.4959 237.465C67.4688 244.268 61.7763 249.806 54.7254 249.779C47.6744 249.752 42.026 244.17 42.0531 237.367C42.0801 230.564 47.7727 225.026 54.8236 225.053C61.8746 225.08 67.5229 230.662 67.4959 237.465Z" fill="url(#paint5_linear_102_4416)" stroke="url(#paint6_linear_102_4416)" stroke-width="2"/>
<path d="M67.4959 267.465C67.4688 274.268 61.7763 279.806 54.7254 279.779C47.6744 279.752 42.026 274.17 42.0531 267.367C42.0801 260.564 47.7727 255.026 54.8236 255.053C61.8746 255.08 67.5229 260.662 67.4959 267.465Z" fill="url(#paint7_linear_102_4416)" stroke="url(#paint8_linear_102_4416)" stroke-width="2"/>
<path d="M67.4959 297.465C67.4688 304.268 61.7763 309.806 54.7254 309.779C47.6744 309.752 42.026 304.17 42.0531 297.367C42.0801 290.564 47.7727 285.026 54.8236 285.053C61.8746 285.08 67.5229 290.662 67.4959 297.465Z" fill="url(#paint9_linear_102_4416)" stroke="url(#paint10_linear_102_4416)" stroke-width="2"/>
<path d="M52.4959 327.465C52.4688 334.268 46.7763 339.806 39.7254 339.779C32.6744 339.752 27.026 334.17 27.0531 327.367C27.0801 320.564 32.7727 315.026 39.8236 315.053C46.8746 315.08 52.5229 320.662 52.4959 327.465Z" fill="url(#paint11_linear_102_4416)" stroke="url(#paint12_linear_102_4416)" stroke-width="2"/>
<path d="M74.87 326.637C74.8526 331.021 71.1428 334.622 66.5073 334.604C61.8718 334.586 58.1908 330.957 58.2082 326.573C58.2256 322.189 61.9354 318.589 66.5709 318.607C71.2064 318.625 74.8874 322.254 74.87 326.637Z" fill="url(#paint13_linear_102_4416)" stroke="url(#paint14_linear_102_4416)" stroke-width="2"/>
<path d="M37.4959 375.495C37.4688 382.298 31.7763 387.836 24.7254 387.809C17.6744 387.782 12.026 382.2 12.0531 375.397C12.0801 368.594 17.7727 363.056 24.8236 363.083C31.8746 363.11 37.5229 368.692 37.4959 375.495Z" stroke="url(#paint15_linear_102_4416)" stroke-width="2"/>
<path d="M59.87 374.668C59.8526 379.051 56.1428 382.652 51.5073 382.634C46.8718 382.616 43.1908 378.987 43.2082 374.603C43.2256 370.219 46.9354 366.619 51.5709 366.637C56.2064 366.655 59.8874 370.284 59.87 374.668Z" stroke="url(#paint16_linear_102_4416)" stroke-width="2"/>
<defs>
<linearGradient id="paint0_linear_102_4416" x1="3" y1="201" x2="108.911" y2="201" gradientUnits="userSpaceOnUse">
<stop stop-color="#7011BA"/>
<stop offset="0.659159" stop-color="#485CEA"/>
<stop offset="1" stop-color="#4CC6EF"/>
</linearGradient>
<linearGradient id="paint1_linear_102_4416" x1="41.0542" y1="177.363" x2="68.497" y2="177.474" gradientUnits="userSpaceOnUse">
<stop stop-color="#7011BA"/>
<stop offset="0.659159" stop-color="#485CEA"/>
<stop offset="1" stop-color="#4CC6EF"/>
</linearGradient>
<linearGradient id="paint2_linear_102_4416" x1="41.0542" y1="177.363" x2="68.497" y2="177.474" gradientUnits="userSpaceOnUse">
<stop stop-color="#7011BA"/>
<stop offset="0.659159" stop-color="#485CEA"/>
<stop offset="1" stop-color="#4CC6EF"/>
</linearGradient>
<linearGradient id="paint3_linear_102_4416" x1="41.0531" y1="207.363" x2="68.4959" y2="207.472" gradientUnits="userSpaceOnUse">
<stop stop-color="#7011BA"/>
<stop offset="0.659159" stop-color="#485CEA"/>
<stop offset="1" stop-color="#4CC6EF"/>
</linearGradient>
<linearGradient id="paint4_linear_102_4416" x1="41.0531" y1="207.363" x2="68.4959" y2="207.472" gradientUnits="userSpaceOnUse">
<stop stop-color="#7011BA"/>
<stop offset="0.659159" stop-color="#485CEA"/>
<stop offset="1" stop-color="#4CC6EF"/>
</linearGradient>
<linearGradient id="paint5_linear_102_4416" x1="41.0531" y1="237.363" x2="68.4959" y2="237.472" gradientUnits="userSpaceOnUse">
<stop stop-color="#7011BA"/>
<stop offset="0.659159" stop-color="#485CEA"/>
<stop offset="1" stop-color="#4CC6EF"/>
</linearGradient>
<linearGradient id="paint6_linear_102_4416" x1="41.0531" y1="237.363" x2="68.4959" y2="237.472" gradientUnits="userSpaceOnUse">
<stop stop-color="#7011BA"/>
<stop offset="0.659159" stop-color="#485CEA"/>
<stop offset="1" stop-color="#4CC6EF"/>
</linearGradient>
<linearGradient id="paint7_linear_102_4416" x1="41.0531" y1="267.363" x2="68.4959" y2="267.472" gradientUnits="userSpaceOnUse">
<stop stop-color="#7011BA"/>
<stop offset="0.659159" stop-color="#485CEA"/>
<stop offset="1" stop-color="#4CC6EF"/>
</linearGradient>
<linearGradient id="paint8_linear_102_4416" x1="41.0531" y1="267.363" x2="68.4959" y2="267.472" gradientUnits="userSpaceOnUse">
<stop stop-color="#7011BA"/>
<stop offset="0.659159" stop-color="#485CEA"/>
<stop offset="1" stop-color="#4CC6EF"/>
</linearGradient>
<linearGradient id="paint9_linear_102_4416" x1="41.0531" y1="297.363" x2="68.4959" y2="297.472" gradientUnits="userSpaceOnUse">
<stop stop-color="#7011BA"/>
<stop offset="0.659159" stop-color="#485CEA"/>
<stop offset="1" stop-color="#4CC6EF"/>
</linearGradient>
<linearGradient id="paint10_linear_102_4416" x1="41.0531" y1="297.363" x2="68.4959" y2="297.472" gradientUnits="userSpaceOnUse">
<stop stop-color="#7011BA"/>
<stop offset="0.659159" stop-color="#485CEA"/>
<stop offset="1" stop-color="#4CC6EF"/>
</linearGradient>
<linearGradient id="paint11_linear_102_4416" x1="26.0531" y1="327.363" x2="53.4959" y2="327.472" gradientUnits="userSpaceOnUse">
<stop stop-color="#7011BA"/>
<stop offset="0.659159" stop-color="#485CEA"/>
<stop offset="1" stop-color="#4CC6EF"/>
</linearGradient>
<linearGradient id="paint12_linear_102_4416" x1="26.0531" y1="327.363" x2="53.4959" y2="327.472" gradientUnits="userSpaceOnUse">
<stop stop-color="#7011BA"/>
<stop offset="0.659159" stop-color="#485CEA"/>
<stop offset="1" stop-color="#4CC6EF"/>
</linearGradient>
<linearGradient id="paint13_linear_102_4416" x1="57.2082" y1="326.569" x2="75.87" y2="326.643" gradientUnits="userSpaceOnUse">
<stop stop-color="#7011BA"/>
<stop offset="0.659159" stop-color="#485CEA"/>
<stop offset="1" stop-color="#4CC6EF"/>
</linearGradient>
<linearGradient id="paint14_linear_102_4416" x1="57.2082" y1="326.569" x2="75.87" y2="326.643" gradientUnits="userSpaceOnUse">
<stop stop-color="#7011BA"/>
<stop offset="0.659159" stop-color="#485CEA"/>
<stop offset="1" stop-color="#4CC6EF"/>
</linearGradient>
<linearGradient id="paint15_linear_102_4416" x1="11.0531" y1="375.393" x2="38.4959" y2="375.502" gradientUnits="userSpaceOnUse">
<stop stop-color="#7011BA"/>
<stop offset="0.659159" stop-color="#485CEA"/>
<stop offset="1" stop-color="#4CC6EF"/>
</linearGradient>
<linearGradient id="paint16_linear_102_4416" x1="42.2082" y1="374.599" x2="60.87" y2="374.673" gradientUnits="userSpaceOnUse">
<stop stop-color="#7011BA"/>
<stop offset="0.659159" stop-color="#485CEA"/>
<stop offset="1" stop-color="#4CC6EF"/>
</linearGradient>
</defs>
</svg>
